HIERARCHY
ROOT Hips
{
    OFFSET 0.000000 0.000000 0.000000
    CHANNELS 6 Xposition Yposition Zposition Zrotation Xrotation Yrotation
    JOINT Spine
    {
        OFFSET -0.000000 14.517291 0.000000
        CHANNELS 3 Zrotation Xrotation Yrotation
        JOINT Spine1
        {
            OFFSET -0.000000 37.558300 0.000000
            CHANNELS 3 Zrotation Xrotation Yrotation
            JOINT Neck
            {
                OFFSET -0.000000 37.404057 3.400369
                CHANNELS 3 Zrotation Xrotation Yrotation
                JOINT Head
                {
                    OFFSET -0.000000 24.785618 -3.540803
                    CHANNELS 3 Zrotation Xrotation Yrotation
                    End Site
                    {
                        OFFSET -0.000000 35.408028 0.000000
                    }
                }
            }
            JOINT LeftShoulder
            {
                OFFSET 6.992933 33.973492 -0.192664
                CHANNELS 3 Zrotation Xrotation Yrotation
                JOINT LeftArm
                {
                    OFFSET 21.527611 0.000000 0.000000
                    CHANNELS 3 Zrotation Xrotation Yrotation
                    JOINT LeftForeArm
                    {
                        OFFSET 56.353916 0.000000 0.000000
                        CHANNELS 3 Zrotation Xrotation Yrotation
                        JOINT LeftHand
                        {
                            OFFSET 47.774071 0.000000 0.000000
                            CHANNELS 3 Zrotation Xrotation Yrotation
                            End Site
                            {
                                OFFSET 26.556021 0.000000 0.000000
                            }
                        }
                    }
                }
            }
            JOINT RightShoulder
            {
                OFFSET -7.065357 33.973492 -0.192664
                CHANNELS 3 Zrotation Xrotation Yrotation
                JOINT RightArm
                {
                    OFFSET -21.527611 0.000000 0.000000
                    CHANNELS 3 Zrotation Xrotation Yrotation
                    JOINT RightForeArm
                    {
                        OFFSET -56.353916 0.000000 0.000000
                        CHANNELS 3 Zrotation Xrotation Yrotation
                        JOINT RightHand
                        {
                            OFFSET -47.774071 0.000000 0.000000
                            CHANNELS 3 Zrotation Xrotation Yrotation
                            End Site
                            {
                                OFFSET -26.556021 0.000000 0.000000
                            }
                        }
                    }
                }
            }
        }
    }
    JOINT LeftUpLeg
    {
        OFFSET 17.704014 0.000000 0.000000
        CHANNELS 3 Zrotation Xrotation Yrotation
        JOINT LeftLeg
        {
            OFFSET -0.000000 -81.181816 0.000000
            CHANNELS 3 Zrotation Xrotation Yrotation
            JOINT LeftFoot
            {
                OFFSET -0.000000 -62.821102 0.000000
                CHANNELS 3 Zrotation Xrotation Yrotation
                JOINT LeftToeBase
                {
                    OFFSET -0.000000 -11.507608 26.556021
                    CHANNELS 3 Zrotation Xrotation Yrotation
                    End Site
                    {
                        OFFSET -0.000000 0.000000 7.081605
                    }
                }
            }
        }
    }
    JOINT RightUpLeg
    {
        OFFSET -17.704014 0.000000 0.000000
        CHANNELS 3 Zrotation Xrotation Yrotation
        JOINT RightLeg
        {
            OFFSET -0.000000 -81.181816 0.000000
            CHANNELS 3 Zrotation Xrotation Yrotation
            JOINT RightFoot
            {
                OFFSET -0.000000 -62.821102 0.000000
                CHANNELS 3 Zrotation Xrotation Yrotation
                JOINT RightToeBase
                {
                    OFFSET -0.000000 -11.507608 26.556021
                    CHANNELS 3 Zrotation Xrotation Yrotation
                    End Site
                    {
                        OFFSET -0.000000 0.000000 7.081605
                    }
                }
            }
        }
    }
}
MOTION
Frames:    8
Frame Time:    0.008333
-31.495077    167.047348    -26.243097    -9.499140    -21.955471    44.418739    3.768237    7.553119    -2.432017    4.366758    4.036942    -0.882798    23.113201    -3.654472    -0.447952    -3.547595    -1.774397    -5.265625    10.439642    7.229814    -22.302036    -30.985004    15.886765    -45.494759    -9.987206    -23.683039    -113.005653    -5.779120    -36.390781    -9.671449    9.574137    0.330539    -5.460347    20.736809    -4.389369    39.827248    -18.926956    -1.589750    52.787460    -19.394255    1.249807    37.533176    24.145088    -5.669506    -1.764688    -3.015706    32.174267    -24.527367    4.738733    -14.267799    24.986568    0.000000    0.000000    0.000000    -89.824387    -47.762505    -56.143120    6.206070    17.687904    -7.007469    11.756212    20.877140    -19.079037    0.000000    0.000000    0.000000    
-31.557093    167.109604    -26.246977    -9.561097    -21.917639    44.470295    3.754955    7.504124    -2.424310    4.403799    4.079017    -0.883898    23.011467    -3.711835    -0.485166    -3.405643    -1.759570    -5.274142    10.390182    7.189019    -22.279902    -30.992905    15.870728    -45.480457    -10.016676    -23.632032    -113.006874    -5.727183    -36.387146    -9.656845    9.519514    0.303807    -5.485820    20.823969    -4.338618    39.816681    -19.017702    -1.670615    52.867676    -19.357599    1.265356    37.427921    24.227850    -5.669580    -1.768600    -3.128573    31.903833    -24.464024    4.677358    -14.162474    24.971195    0.000000    0.000000    0.000000    -89.852676    -47.710464    -56.150635    6.233209    17.683775    -7.032090    11.745214    20.887764    -19.082092    0.000000    0.000000    0.000000    
-31.630793    167.203308    -26.242785    -9.649275    -21.895966    44.539040    3.765284    7.438609    -2.431486    4.429776    4.152401    -0.890373    22.936239    -3.805914    -0.516679    -3.260944    -1.730191    -5.288355    10.359589    7.128396    -22.243975    -30.997910    15.871115    -45.486656    -10.037498    -23.594824    -112.996994    -5.758909    -36.375858    -9.663682    9.494100    0.294176    -5.534165    20.887609    -4.279902    39.816204    -19.137346    -1.761929    52.946526    -19.315178    1.279563    37.363041    24.336933    -5.706122    -1.797123    -3.235980    31.667568    -24.330175    4.574064    -14.040223    24.908369    0.000000    0.000000    0.000000    -89.837799    -47.634464    -56.136177    6.259583    17.685543    -7.033633    11.773403    20.869328    -19.113520    0.000000    0.000000    0.000000    
-31.721634    167.320435    -26.235147    -9.762758    -21.851254    44.614090    3.758373    7.335648    -2.443321    4.460116    4.243025    -0.900045    22.844999    -3.875416    -0.570526    -3.078526    -1.761199    -5.313354    10.360501    7.064823    -22.211847    -31.042946    15.810025    -45.496311    -10.118805    -23.444685    -112.997398    -5.655267    -36.354561    -9.615079    9.497787    0.267309    -5.589994    20.925240    -4.142806    39.820164    -19.328278    -1.918608    52.982872    -19.259068    1.257022    37.319302    24.457296    -5.770752    -1.831290    -3.368417    31.411699    -24.128622    4.351061    -13.954404    24.872532    0.000000    0.000000    0.000000    -89.847969    -47.555916    -56.134869    6.284734    17.691727    -7.053457    11.799664    20.845503    -19.124489    0.000000    0.000000    0.000000    
-31.820112    167.470688    -26.234930    -9.889714    -21.803089    44.678547    3.742003    7.229727    -2.447581    4.505416    4.339516    -0.908301    22.772221    -3.919748    -0.624980    -2.913763    -1.851235    -5.341405    10.355783    7.000489    -22.180811    -31.047529    15.813228    -45.524529    -10.132488    -23.409092    -112.982056    -5.605100    -36.340874    -9.601449    9.496958    0.264290    -5.627684    21.014034    -4.139221    39.794121    -19.407988    -1.974900    53.096973    -19.206617    1.288257    37.300388    24.618917    -5.704440    -1.699455    -3.466175    30.886259    -24.083595    4.063485    -13.886059    24.876869    0.000000    0.000000    0.000000    -89.835289    -47.494156    -56.152103    6.290112    17.685570    -7.074036    11.815031    20.870396    -19.129837    0.000000    0.000000    0.000000    
-31.929049    167.671631    -26.216230    -10.032640    -21.793606    44.765930    3.732367    7.123193    -2.468293    4.579305    4.484070    -0.924955    22.688194    -3.989137    -0.681284    -2.711253    -1.961035    -5.368471    10.357876    6.913545    -22.137287    -31.049747    15.820755    -45.574165    -10.172935    -23.362274    -112.975601    -5.553496    -36.353458    -9.570068    9.496792    0.250589    -5.694825    21.147940    -4.183547    39.805607    -19.454620    -1.962857    53.222305    -19.175783    1.368291    37.268349    24.820663    -5.643885    -1.538911    -3.502744    30.451756    -24.543398    3.806303    -13.891088    25.438814    0.000000    0.000000    0.000000    -89.718964    -47.415234    -56.113598    6.261284    17.674131    -7.084470    11.882273    20.875675    -19.122082    0.000000    0.000000    0.000000    
-32.048988    167.910507    -26.206091    -10.190852    -21.760664    44.867077    3.738653    6.985673    -2.499731    4.589409    4.666224    -0.944212    22.633175    -4.145338    -0.721487    -2.463668    -2.004927    -5.392787    10.409815    6.799357    -22.088978    -31.054527    15.850171    -45.641602    -10.203120    -23.335554    -112.966156    -5.509733    -36.370544    -9.515779    9.522634    0.160825    -5.741639    21.305962    -4.156738    39.750137    -19.533241    -1.969678    53.359196    -19.101675    1.461678    37.248409    25.018658    -5.510120    -1.280935    -3.531458    29.665457    -23.903334    3.228328    -13.818380    24.932753    0.000000    0.000000    0.000000    -89.611763    -47.332348    -56.150188    6.202826    17.660547    -7.075296    11.913624    20.944054    -19.071100    0.000000    0.000000    0.000000    
-32.201775    168.222885    -26.183451    -10.404151    -21.755077    44.978848    3.699588    6.840826    -2.541581    4.767723    4.867074    -0.975853    22.417105    -4.258849    -0.809003    -2.089473    -2.166669    -5.408080    10.361469    6.680494    -22.032116    -31.030970    15.891686    -45.702290    -10.245029    -23.309702    -112.969711    -5.471777    -36.405659    -9.464136    9.477708    0.129807    -5.817589    21.473787    -4.125504    39.743301    -19.654955    -2.028003    53.494732    -19.012369    1.545093    37.153275    25.275242    -5.424011    -0.776264    -3.373538    28.987513    -23.977547    2.637795    -13.871563    25.167061    0.000000    0.000000    0.000000    -89.414772    -47.229023    -56.079597    6.165724    17.637794    -7.031896    11.950000    20.964930    -19.082788    0.000000    0.000000    0.000000    
